<svg height='300px' width='300px'  fill="#000000" xmlns="http://www.w3.org/2000/svg" xmlns:xlink="http://www.w3.org/1999/xlink" version="1.1" x="0px" y="0px" viewBox="0 0 100 100" enable-background="new 0 0 100 100" xml:space="preserve"><path fill="#000000" d="M82.75,19v20.964c0,0.966-0.783,1.75-1.75,1.75s-1.75-0.784-1.75-1.75V23.225L57.276,45.198  c-0.342,0.342-0.789,0.513-1.237,0.513s-0.896-0.171-1.237-0.513c-0.684-0.683-0.684-1.792,0-2.475L76.775,20.75H60.036  c-0.967,0-1.75-0.784-1.75-1.75s0.783-1.75,1.75-1.75H81c0.115,0,0.23,0.012,0.343,0.035c0.053,0.01,0.101,0.03,0.152,0.045  c0.058,0.017,0.117,0.031,0.174,0.054c0.061,0.025,0.117,0.06,0.174,0.092c0.042,0.023,0.086,0.042,0.127,0.069  c0.192,0.128,0.357,0.293,0.486,0.486c0.028,0.041,0.046,0.086,0.07,0.129c0.031,0.057,0.065,0.111,0.09,0.172  c0.023,0.057,0.037,0.115,0.054,0.174c0.015,0.051,0.035,0.1,0.045,0.153C82.738,18.771,82.75,18.885,82.75,19z M42.724,54.802  L20.75,76.775V60.036c0-0.967-0.784-1.75-1.75-1.75s-1.75,0.783-1.75,1.75V81c0,0.115,0.012,0.23,0.035,0.343  c0.01,0.052,0.03,0.101,0.045,0.152c0.017,0.059,0.031,0.118,0.054,0.175c0.025,0.061,0.06,0.116,0.091,0.173  c0.023,0.042,0.042,0.087,0.069,0.128c0.128,0.192,0.294,0.358,0.486,0.486c0.041,0.027,0.085,0.045,0.127,0.069  c0.057,0.032,0.113,0.066,0.174,0.092c0.056,0.023,0.115,0.037,0.174,0.054c0.051,0.015,0.1,0.035,0.153,0.045  c0.113,0.022,0.228,0.034,0.342,0.034h20.964c0.966,0,1.75-0.783,1.75-1.75s-0.784-1.75-1.75-1.75H23.225l21.974-21.974  c0.684-0.684,0.684-1.791,0-2.475S43.407,54.118,42.724,54.802z"></path></svg>